<svg width="670" height="683" viewBox="0 0 670 683" fill="none" xmlns="http://www.w3.org/2000/svg">
<g clip-path="url(#clip0_156_4)">
<path d="M85.7331 0.933306C82.9331 1.99997 83.7331 3.59997 88.6665 8.13331C91.5998 10.9333 93.3331 13.6 93.3331 15.7333C93.3331 18.1333 95.7331 21.4666 101.066 26.6666C105.2 30.8 114.8 40.9333 122.4 49.0666C134 61.8666 136 64.6666 136 68.5333C136 72.1333 138 75.6 145.733 85.4666C150.933 92.4 158 101.6 161.333 106.133C169.866 117.733 190 142.933 198.533 152.533C209.466 164.8 215.066 174 216.133 181.067C216.533 184.533 218 190.933 219.2 195.333C220.4 199.733 221.733 208.133 222.133 214C222.533 220.267 224.4 229.333 226.666 236C228.666 242.267 231.333 250.933 232.666 255.333C236 267.2 253.6 301.333 262 312.4C266 317.733 270.933 325.067 272.933 328.8C276.533 335.6 276.533 335.733 275.066 349.867C274.133 358.667 272.666 365.333 271.333 367.467C270.133 369.333 254.933 380.267 237.6 391.733C198.8 417.467 186.666 426.4 181.866 432.8C179.733 435.467 171.2 443.467 162.666 450.667C143.066 467.2 141.733 468.667 144 471.333C144.933 472.4 146.4 473.333 147.333 473.333C148.133 473.333 157.6 466.8 168.133 458.933C178.666 451.067 196.666 438.133 208.133 430.4C233.466 413.2 242.133 410.133 248.133 416.133C252.533 420.533 250.933 427.067 242.666 439.333C232.8 453.867 223.6 464.667 203.733 484.8C191.6 497.067 186.533 503.067 186.933 504.8C187.866 510.133 192.8 508.4 204.133 498.533C223.6 482 255.866 450.933 280 425.6C292.8 412.267 304.533 400.933 306 400.533C307.466 400.267 315.2 400.533 323.066 401.2C338.533 402.533 343.2 404.4 345.333 410.133C348.4 418 364.533 438.933 371.733 444.4C375.866 447.467 380.8 451.6 382.666 453.6C385.6 456.8 396.4 462.933 443.2 488.267C463.733 499.333 467.733 503.2 482.133 524.533C499.466 550.4 505.733 559.6 511.6 567.333C514.4 570.933 522.133 581.733 529.066 591.333C537.466 603.2 542.933 609.333 546 611.067C549.466 612.8 552.666 616.933 559.733 629.067C564.8 637.6 571.466 649.467 574.4 655.333C577.6 661.733 581.466 667.2 583.866 669.067C586.133 670.667 589.066 674.267 590.4 676.933C596 688.667 599.466 680 598.133 657.467C596.4 628.533 590.266 602.133 571.333 543.333C566 526.4 560.533 509.067 559.333 504.8C558 500.533 552.666 487.6 547.333 476.133C542 464.667 535.066 449.333 531.866 442C527.333 431.333 524.666 427.2 518.666 421.067C512.133 414.533 509.733 413.2 501.2 410.667C459.066 398.4 428.933 386.8 422 380C415.6 373.867 411.2 364.667 407.2 349.867C402.933 333.733 403.333 327.2 409.333 312.8C415.333 298.4 422.133 290.533 439.866 277.6C454.666 266.8 454.8 266.667 450 266.667C447.333 266.667 440.533 268.533 434.933 270.8C427.333 273.867 421.333 275.333 412 276C404.933 276.667 396.666 278.267 393.333 279.6C388.8 281.6 384.533 282.133 375.866 281.867C365.333 281.733 363.466 281.2 353.2 276.133C332.266 266 315.2 249.733 312.8 238C311.333 230.933 308 181.067 308 166.667C307.866 145.867 304.933 140.533 281.333 120C273.466 113.067 261.733 102.8 255.466 97.2C243.066 86.1333 180.8 43.2 155.2 28.1333C135.333 16.5333 122.266 10.4 104.266 4.53331C90.3998 -2.74395e-05 88.7998 -0.400027 85.7331 0.933306Z" fill="#0A60E5"/>
</g>
<defs>
<clipPath id="clip0_156_4">
<rect width="682.667" height="682.667" fill="white"/>
</clipPath>
</defs>
</svg>
