<svg width="1000" height="1000" viewBox="0 0 1000 1000" fill="none" xmlns="http://www.w3.org/2000/svg">
<circle cx="500" cy="500" r="500" fill="#0A60E5"/>
<path d="M244.603 159.669C241.803 160.736 242.603 162.336 247.537 166.869C250.47 169.669 252.203 172.336 252.203 174.469C252.203 176.869 254.603 180.202 259.937 185.402C264.07 189.536 273.67 199.669 281.27 207.802C292.87 220.602 294.87 223.402 294.87 227.269C294.87 230.869 296.87 234.336 304.603 244.202C309.803 251.136 316.87 260.336 320.203 264.869C328.737 276.469 348.87 301.669 357.403 311.269C368.337 323.536 373.937 332.736 375.003 339.802C375.403 343.269 376.87 349.669 378.07 354.069C379.27 358.469 380.603 366.869 381.003 372.736C381.403 379.002 383.27 388.069 385.537 394.736C387.537 401.002 390.203 409.669 391.537 414.069C394.87 425.936 412.47 460.069 420.87 471.136C424.87 476.469 429.803 483.802 431.803 487.536C435.403 494.336 435.403 494.469 433.937 508.602C433.003 517.402 431.537 524.069 430.203 526.202C429.003 528.069 413.803 539.002 396.47 550.469C357.67 576.202 345.537 585.136 340.737 591.536C338.603 594.202 330.07 602.202 321.537 609.402C301.937 625.936 300.603 627.402 302.87 630.069C303.803 631.136 305.27 632.069 306.203 632.069C307.003 632.069 316.47 625.536 327.003 617.669C337.537 609.802 355.537 596.869 367.003 589.136C392.337 571.936 401.003 568.869 407.003 574.869C411.403 579.269 409.803 585.802 401.537 598.069C391.67 612.602 382.47 623.402 362.603 643.536C350.47 655.802 345.403 661.802 345.803 663.536C346.737 668.869 351.67 667.136 363.003 657.269C382.47 640.736 414.737 609.669 438.87 584.336C451.67 571.002 463.403 559.669 464.87 559.269C466.337 559.002 474.07 559.269 481.937 559.936C497.403 561.269 502.07 563.136 504.203 568.869C507.27 576.736 523.403 597.669 530.603 603.136C534.737 606.202 539.67 610.336 541.537 612.336C544.47 615.536 555.27 621.669 602.07 647.002C622.603 658.069 626.603 661.936 641.003 683.269C658.337 709.136 664.603 718.336 670.47 726.069C673.27 729.669 681.003 740.469 687.937 750.069C696.337 761.936 701.803 768.069 704.87 769.802C708.337 771.536 711.537 775.669 718.603 787.802C723.67 796.336 730.337 808.202 733.27 814.069C736.47 820.469 740.337 825.936 742.737 827.802C745.003 829.402 747.937 833.002 749.27 835.669C754.87 847.402 758.337 838.736 757.003 816.202C755.27 787.269 749.137 760.869 730.203 702.069C724.87 685.136 719.403 667.802 718.203 663.536C716.87 659.269 711.537 646.336 706.203 634.869C700.87 623.402 693.937 608.069 690.737 600.736C686.203 590.069 683.537 585.936 677.537 579.802C671.003 573.269 668.603 571.936 660.07 569.402C617.937 557.136 587.803 545.536 580.87 538.736C574.47 532.602 570.07 523.402 566.07 508.602C561.803 492.469 562.203 485.936 568.203 471.536C574.203 457.136 581.003 449.269 598.737 436.336C613.537 425.536 613.67 425.402 608.87 425.402C606.203 425.402 599.403 427.269 593.803 429.536C586.203 432.602 580.203 434.069 570.87 434.736C563.803 435.402 555.537 437.002 552.203 438.336C547.67 440.336 543.403 440.869 534.737 440.602C524.203 440.469 522.337 439.936 512.07 434.869C491.137 424.736 474.07 408.469 471.67 396.736C470.203 389.669 466.87 339.802 466.87 325.402C466.737 304.602 463.803 299.269 440.203 278.736C432.337 271.802 420.603 261.536 414.337 255.936C401.937 244.869 339.67 201.936 314.07 186.869C294.203 175.269 281.137 169.136 263.137 163.269C249.27 158.736 247.67 158.336 244.603 159.669Z" fill="white"/>
</svg>
